<svg width="105" height="11" viewBox="0 0 105 11" fill="none" xmlns="http://www.w3.org/2000/svg">
<g opacity="0.75">
<path d="M8.58315 9.07218C7.61233 10.0291 6.35906 10.4736 4.99929 10.4736C1.49568 10.4736 0.0139804 8.06123 8.94545e-05 5.60871C-0.0138015 3.14229 1.58983 0.635745 4.99929 0.635745C5.64325 0.635024 6.28095 0.762069 6.87546 1.00952C7.46998 1.25697 8.00949 1.61991 8.46277 2.07732L7.27741 3.22255C6.66324 2.64012 5.84561 2.32105 4.99929 2.33353C2.72117 2.33353 1.738 4.03131 1.75189 5.60871C1.76578 7.17221 2.6687 8.80208 4.99929 8.80208C5.88302 8.79667 6.73142 8.45444 7.37156 7.84515L8.58315 9.07218Z" fill="white"/>
<path d="M11.2259 0.826172V8.61591H16.0769V10.2597H9.44629V0.826172H11.2259Z" fill="white"/>
<path d="M26.319 5.59676C26.2928 8.0354 24.7957 10.4756 21.4819 10.4756C18.1681 10.4756 16.6309 8.09096 16.6309 5.61065C16.6309 3.13035 18.2206 0.637695 21.4819 0.637695C24.7277 0.637695 26.3453 3.13035 26.319 5.59676ZM18.3811 5.63689C18.4212 7.18651 19.2563 8.84416 21.4803 8.84416C23.7044 8.84416 24.5394 7.17262 24.5657 5.623C24.5919 4.03326 23.7029 2.25367 21.4803 2.25367C19.2578 2.25367 18.341 4.04715 18.3811 5.63689Z" fill="white"/>
<path d="M35.9008 0.839844V6.24342C35.9008 9.03242 34.1891 10.4616 31.8184 10.4616C29.5541 10.4616 27.6279 9.08644 27.6279 6.24342V0.839844H29.3936V6.24342C29.3936 7.9412 30.3644 8.84412 31.8323 8.84412C33.3001 8.84412 34.1366 7.86095 34.1366 6.24342V0.839844H35.9008Z" fill="white"/>
<path d="M45.9411 5.46071C45.9812 7.84532 44.5258 10.2577 41.2243 10.2577H37.5186V0.824219H41.2243C44.4579 0.825762 45.8994 3.13012 45.9411 5.46071ZM39.2827 8.54759H41.2228C43.3651 8.54759 44.214 6.98408 44.1739 5.44836C44.1337 3.97901 43.271 2.5112 41.2228 2.5112H39.2827V8.54759Z" fill="white"/>
<path d="M47.2744 10.2597V0.826172H49.0401V10.2597H47.2744Z" fill="white"/>
<path d="M50.7109 10.2594V0.839844H57.4897V2.55152H52.4905V5.12597H57.2212V6.76973H52.4905V10.2594H50.7109Z" fill="white"/>
<path d="M63.1083 4.72027L65.6149 0.826172H67.7572V0.906434L63.9973 6.36403V10.2581H62.2193V6.36403L58.5938 0.906434V0.826172H60.7098L63.1083 4.72027Z" fill="white"/>
<path d="M75.2367 8.48009H70.3039L69.4951 10.2597H67.5674L71.798 0.826172H73.7381L77.9702 10.2597H76.0301L75.2367 8.48009ZM72.7719 2.80641L71.0201 6.82243H74.5237L72.7719 2.80641Z" fill="white"/>
<path d="M83.0804 7.48227H80.4118V10.2589H78.6338V0.825414C80.1155 0.825414 81.5987 0.811523 83.0804 0.811523C87.6891 0.811523 87.703 7.48227 83.0804 7.48227ZM80.4118 5.8524H83.0804C85.3586 5.8524 85.3447 2.51085 83.0804 2.51085H80.4118V5.8524Z" fill="white"/>
<path d="M92.1918 7.48227H89.5232V10.2589H87.7451V0.825414C89.2268 0.825414 90.7101 0.811523 92.1918 0.811523C96.8005 0.811523 96.8128 7.48227 92.1918 7.48227ZM89.5232 5.8524H92.1918C94.4699 5.8524 94.456 2.51085 92.1918 2.51085H89.5232V5.8524Z" fill="white"/>
<path d="M102.676 3.10224C102.352 2.56358 101.463 2.05115 100.44 2.05115C99.1183 2.05115 98.4855 2.60371 98.4855 3.30443C98.4855 4.12708 99.4563 4.35551 100.588 4.48979C102.556 4.73211 104.388 5.24453 104.388 7.49487C104.388 9.59703 102.528 10.4999 100.426 10.4999C98.4979 10.4999 97.0162 9.90726 96.3154 8.18169L97.7971 7.41307C98.2154 8.45026 99.3066 8.90865 100.452 8.90865C101.571 8.90865 102.622 8.51817 102.622 7.49332C102.622 6.6043 101.693 6.24005 100.44 6.10577C98.5117 5.87734 96.7337 5.36492 96.7337 3.24886C96.7337 1.30876 98.6476 0.513891 100.385 0.5C101.855 0.5 103.377 0.918274 104.091 2.37374L102.676 3.10224Z" fill="white"/>
</g>
</svg>
